<?xml version="1.0" encoding="UTF-8"?>
<!DOCTYPE svg PUBLIC "-//W3C//DTD SVG 1.1//EN" "http://www.w3.org/Graphics/SVG/1.1/DTD/svg11.dtd">
<!-- Creator: CorelDRAW X7 -->
<svg xmlns="http://www.w3.org/2000/svg" xml:space="preserve" width="712px" height="480px" version="1.1" style="shape-rendering:geometricPrecision; text-rendering:geometricPrecision; image-rendering:optimizeQuality; fill-rule:evenodd; clip-rule:evenodd"
viewBox="0 0 712 480"
 xmlns:xlink="http://www.w3.org/1999/xlink">
 <defs>
  <style type="text/css">
   <![CDATA[
    .fil1 {fill:#FEFEFE}
    .fil2 {fill:#F4A033}
    .fil4 {fill:#242222}
    .fil0 {fill:#4562AB}
    .fil3 {fill:#242222;fill-rule:nonzero}
   ]]>
  </style>
 </defs>
 <g id="Layer_x0020_1">
  <metadata id="CorelCorpID_0Corel-Layer"/>
  <path class="fil0" d="M356 0c33,15 71,24 100,45 32,24 55,58 82,87 -4,37 0,75 -12,110 -12,38 -38,70 -57,105 -36,7 -71,22 -108,22 -40,0 -78,-15 -118,-22 -18,-32 -43,-61 -54,-96 -12,-38 -10,-79 -15,-119 24,-27 44,-59 74,-81 32,-23 72,-34 108,-51z"/>
  <path class="fil1" d="M356 186c1,-2 5,-9 6,-11 1,-2 2,-4 5,-4 -4,12 -3,27 4,38 4,7 11,12 19,14 1,3 1,5 1,8 10,-2 13,-9 11,-17 -1,-6 -2,-13 -1,-18 1,-4 3,-8 10,-6 -2,6 -3,12 -1,18 4,21 17,31 7,51 -6,12 -20,15 -29,16 -12,2 -16,10 -19,14 0,-4 0,-7 -1,-11 -2,-8 -7,-15 -12,-17 -5,2 -10,9 -12,17 -1,4 -1,7 -1,11 -3,-4 -7,-12 -19,-14 -9,-1 -23,-4 -29,-16 -10,-20 3,-30 7,-51 2,-6 1,-12 -1,-18 7,-2 9,2 10,6 1,5 0,12 -1,18 -2,8 1,15 11,17 0,-3 0,-5 1,-8 8,-2 15,-7 19,-14 7,-11 8,-26 4,-38 3,0 4,2 5,4 1,2 5,9 6,11zm0 -44c-2,4 -12,11 -13,13 -2,2 -4,7 0,12 6,0 11,8 13,13 2,-5 7,-13 13,-13 4,-5 2,-10 0,-12 -1,-2 -11,-9 -13,-13zm12 45c-1,10 3,25 21,32 -2,-9 -11,-28 -21,-32zm-24 0c-10,4 -19,23 -21,32 18,-7 22,-22 21,-32zm12 129c-18,-8 -32,-10 -46,-5 -11,4 -22,12 -35,15l0 6c13,-4 22,-11 33,-15 14,-5 29,-4 48,5 19,-9 34,-10 48,-5 11,4 20,11 33,15l0 -6c-13,-3 -24,-11 -35,-15 -14,-5 -28,-3 -46,5zm0 -238c1,2 4,4 7,6 4,3 7,7 6,13l-3 39 3 2 5 -54c2,3 5,10 8,12 4,4 5,9 4,15l-9 37 3 4 12 -48c2,-5 4,-8 9,-8 6,-1 11,3 17,9 -7,0 -10,0 -12,8l-23 85c-4,-6 -7,-12 -14,-14 0,-9 4,-15 6,-23 2,-10 -19,-17 -19,-26 0,9 -21,16 -19,26 2,8 6,14 6,23 -7,2 -10,8 -14,14l-23 -85c-2,-8 -5,-8 -12,-8 6,-6 11,-10 17,-9 5,0 7,3 9,8l12 48 3 -4 -9 -37c-1,-6 0,-11 4,-15 3,-2 6,-9 8,-12l5 54 3 -2 -3 -39c-1,-6 2,-10 6,-13 3,-2 6,-4 7,-6zm76 206c-7,-2 -15,-5 -36,-6 10,-3 18,-6 23,-13 5,-9 6,-20 5,-24 -1,-8 -4,-15 -8,-22 -3,-9 -6,-19 -2,-28 2,-4 7,-4 13,-3 6,2 18,10 25,13 5,1 22,2 28,-4 4,-3 6,-12 4,-18 -2,-7 -6,-11 -7,-21 3,6 10,14 12,19 5,5 6,20 3,26 -1,4 -5,9 -9,11 -8,5 -14,5 -22,5l-1 4c2,1 10,0 16,-2 6,-2 11,-6 12,-7 0,7 -4,15 -11,19 -6,4 -13,5 -18,5l-2 3c10,0 23,-4 28,-10 -1,10 -3,16 -12,20 -6,3 -16,4 -20,4l-2 4c5,0 8,0 12,-1 4,-1 11,-3 14,-5 -1,5 -3,11 -9,14 -7,3 -15,5 -21,6l-2 3c7,1 17,-3 21,-5 -2,6 -8,15 -15,16 -4,0 -12,-1 -19,-3zm-152 0c7,-2 15,-5 36,-6 -10,-3 -18,-6 -23,-13 -5,-9 -6,-20 -5,-24 1,-8 4,-15 8,-22 3,-9 6,-19 2,-28 -2,-4 -7,-4 -13,-3 -6,2 -18,10 -25,13 -5,1 -22,2 -28,-4 -4,-3 -6,-12 -4,-18 2,-7 6,-11 7,-21 -3,6 -10,14 -12,19 -5,5 -6,20 -3,26 1,4 5,9 9,11 8,5 14,5 22,5l1 4c-2,1 -10,0 -16,-2 -6,-2 -11,-6 -12,-7 0,7 4,15 11,19 6,4 13,5 18,5l2 3c-10,0 -23,-4 -28,-10 1,10 3,16 12,20 6,3 16,4 20,4l2 4c-5,0 -8,0 -12,-1 -4,-1 -11,-3 -14,-5 1,5 3,11 9,14 7,3 15,5 21,6l2 3c-7,1 -17,-3 -21,-5 2,6 8,15 15,16 4,0 12,-1 19,-3zm83 12c1,-2 2,-4 3,-6 0,-3 0,-5 -1,-11 -1,-5 -5,-13 -9,-15 -4,2 -7,8 -9,15 -1,4 -1,8 -1,11 2,4 3,7 6,9 0,0 0,0 -1,0 2,1 3,2 5,3 2,-1 5,-4 7,-6zm-7 17c18,-9 33,-10 47,-5 11,5 21,13 33,15l-2 -11c-13,-2 -22,-11 -34,-16 -11,-4 -22,-4 -36,1 -2,4 -5,7 -8,8 -3,-1 -6,-4 -8,-8 -14,-5 -25,-5 -36,-1 -12,5 -21,14 -34,16l-2 11c12,-2 22,-10 33,-15 14,-5 29,-4 47,5zm0 -55c6,0 8,3 13,6 7,-5 13,-16 11,-25 -1,-7 -8,-18 -14,-28 -4,-7 -8,-16 -10,-22 -2,6 -6,15 -10,22 -6,10 -13,21 -14,28 -2,9 4,20 11,25 5,-3 7,-6 13,-6z"/>
  <path class="fil2" d="M356 196c0,3 -4,10 -8,16 5,4 8,8 10,12 1,5 1,11 -2,21l-3 -1c2,-9 3,-15 1,-19 -1,-4 -3,-6 -8,-10 -2,5 -5,9 -6,11 -3,6 -7,15 -5,22 1,6 5,9 7,12 4,-3 7,-6 14,-6 7,0 10,3 14,6 2,-3 6,-6 7,-12 2,-7 -2,-16 -5,-22 -3,-6 -16,-26 -16,-30z"/>
  <path class="fil3" d="M239 106l2 1 -2 4 16 7 -2 6 -16 -7 -2 4 -2 -1 6 -14zm10 -16l11 7c4,3 5,6 2,10 -3,4 -6,5 -10,3l-11 -7 3 -5 12 7c1,1 2,1 3,1 1,0 1,0 2,-2 1,-2 1,-4 -2,-5l-11 -7 1 -2zm13 -15l2 2 -3 3 13 12 -4 4 -13 -11 -3 3 -2 -1 10 -12zm30 -22l6 19 -3 2 -8 -7 3 10 -3 2 -15 -13 5 -3 9 8 -4 -12 3 -1 8 8 -3 -12 2 -1zm17 -8l5 12c2,4 1,7 -4,9 -4,2 -8,1 -9,-3l-6 -12 5 -2 6 12c0,2 1,2 2,3 1,0 2,0 3,0 2,-2 3,-3 1,-6l-5 -12 2 -1zm10 17l-4 -19 8 -2c2,0 4,0 6,0 1,1 2,2 2,3 1,3 0,4 -3,6 2,0 3,0 3,1 1,0 1,1 2,3 1,2 1,4 2,4l-6 2c0,-1 -1,-2 -1,-4l-1 -1 0 -1c0,-2 -1,-3 -3,-3l-1 0 2 9 -6 2zm3 -12l2 0c2,-1 2,-2 2,-4 -1,-3 -2,-3 -4,-3l-1 0 1 7zm18 -12l3 19 -6 1 -2 -19 5 -1zm21 9l0 10 -6 -1 1 -19 6 0 -1 8 5 0 0 -7 6 0 -1 19 -6 0 1 -10 -5 0zm26 -6l1 20 -5 -1 -1 -4 -5 -2 -2 4 -3 0 10 -18 5 1zm-9 12l4 1 0 -9 -4 8zm31 -4l-6 18 -4 -2 -4 -14 -4 12 -2 -1 7 -18 3 1 4 15 5 -12 1 1zm-3 20l10 -17 6 4c5,3 6,7 3,13 -4,5 -8,7 -13,4l-6 -4zm5 1l1 1c2,1 3,1 4,0 1,-1 2,-2 4,-5 1,-3 2,-5 2,-6 0,-1 0,-2 -1,-3l-1 -1 -9 14zm30 0l-9 18 -4 -4 2 -4 -5 -3 -3 2 -2 -1 17 -12 4 4zm-14 5l4 4 3 -8 -7 4zm30 12l-12 4 -6 5 -3 -4 5 -5 5 -12 4 4 -4 9 9 -3 2 2zm7 10l-13 15 -3 -5 3 -3 -4 -5 -4 2 -1 -2 19 -6 3 4zm-15 2l3 4 6 -7 -9 3zm26 19l-17 8 -2 -4 7 -12 -11 5 0 -2 17 -8 1 3 -8 14 12 -6 1 2zm4 10l-18 7 -2 -6 18 -6 2 5zm-123 188c-18,-8 -32,-10 -46,-5 -11,4 -22,12 -35,15l0 6c13,-4 22,-11 33,-15 14,-5 29,-4 48,5 19,-9 34,-10 48,-5 11,4 20,11 33,15l0 -6c-13,-3 -24,-11 -35,-15 -14,-5 -28,-3 -46,5zm0 -3c18,-9 33,-10 47,-5 11,5 21,13 33,15l-2 -11c-13,-2 -22,-11 -34,-16 -11,-4 -22,-4 -36,1 -2,4 -5,7 -8,8 -3,-1 -6,-4 -8,-8 -14,-5 -25,-5 -36,-1 -12,5 -21,14 -34,16l-2 11c12,-2 22,-10 33,-15 14,-5 29,-4 47,5zm7 -17c1,-2 2,-4 3,-6 0,-3 0,-5 -1,-11 -1,-5 -5,-13 -9,-15 -4,2 -7,8 -9,15 -1,4 -1,8 -1,11 2,4 3,7 6,9 0,0 0,0 -1,0 2,1 3,2 5,3 2,-1 5,-4 7,-6zm-7 -100c0,3 -4,10 -8,16 5,4 8,8 10,12 1,5 1,11 -2,21l-3 -1c2,-9 3,-15 1,-19 -1,-4 -3,-6 -8,-10 -2,5 -5,9 -6,11 -3,6 -7,15 -5,22 1,6 5,9 7,12 4,-3 7,-6 14,-6 7,0 10,3 14,6 2,-3 6,-6 7,-12 2,-7 -2,-16 -5,-22 -3,-6 -16,-26 -16,-30zm0 -54c-2,4 -12,11 -13,13 -2,2 -4,7 0,12 6,0 11,8 13,13 2,-5 7,-13 13,-13 4,-5 2,-10 0,-12 -1,-2 -11,-9 -13,-13zm12 45c-1,10 3,25 21,32 -2,-9 -11,-28 -21,-32zm-24 0c-10,4 -19,23 -21,32 18,-7 22,-22 21,-32zm12 -109c-1,2 -4,4 -7,6 -4,3 -7,7 -6,13l3 39 -3 2 -5 -54c-2,3 -5,10 -8,12 -4,4 -5,9 -4,15l9 37 -3 4 -12 -48c-2,-5 -4,-8 -9,-8 -6,-1 -11,3 -17,9 7,0 10,0 12,8l23 85c4,-6 7,-12 14,-14 0,-9 -4,-15 -6,-23 -2,-10 19,-17 19,-26 0,9 21,16 19,26 -2,8 -6,14 -6,23 7,2 10,8 14,14l23 -85c2,-8 5,-8 12,-8 -6,-6 -11,-10 -17,-9 -5,0 -7,3 -9,8l-12 48 -3 -4 9 -37c1,-6 0,-11 -4,-15 -3,-2 -6,-9 -8,-12l-5 54 -3 -2 3 -39c1,-6 -2,-10 -6,-13 -3,-2 -6,-4 -7,-6zm76 206c7,2 15,3 19,3 7,-1 13,-10 15,-16 -4,2 -14,6 -21,5l2 -3c6,-1 14,-3 21,-6 6,-3 8,-9 9,-14 -3,2 -10,4 -14,5 -4,1 -7,1 -12,1l2 -4c4,0 14,-1 20,-4 9,-4 11,-10 12,-20 -5,6 -18,10 -28,10l2 -3c5,0 12,-1 18,-5 7,-4 11,-12 11,-19 -1,1 -6,5 -12,7 -6,2 -14,3 -16,2l1 -4c8,0 14,0 22,-5 4,-2 8,-7 9,-11 3,-6 2,-21 -3,-26 -2,-5 -9,-13 -12,-19 1,10 5,14 7,21 2,6 0,15 -4,18 -6,6 -23,5 -28,4 -7,-3 -19,-11 -25,-13 -6,-1 -11,-1 -13,3 -4,9 -1,19 2,28 4,7 7,14 8,22 1,4 0,15 -5,24 -5,7 -13,10 -23,13 21,1 29,4 36,6zm-76 -26c-6,0 -8,3 -13,6 -7,-5 -13,-16 -11,-25 1,-7 8,-18 14,-28 4,-7 8,-16 10,-22 2,6 6,15 10,22 6,10 13,21 14,28 2,9 -4,20 -11,25 -5,-3 -7,-6 -13,-6zm0 -72c-1,-2 -5,-9 -6,-11 -1,-2 -2,-4 -5,-4 4,12 3,27 -4,38 -4,7 -11,12 -19,14 -1,3 -1,5 -1,8 -10,-2 -13,-9 -11,-17 1,-6 2,-13 1,-18 -1,-4 -3,-8 -10,-6 2,6 3,12 1,18 -4,21 -17,31 -7,51 6,12 20,15 29,16 12,2 16,10 19,14 0,-4 0,-7 1,-11 2,-8 7,-15 12,-17 5,2 10,9 12,17 1,4 1,7 1,11 3,-4 7,-12 19,-14 9,-1 23,-4 29,-16 10,-20 -3,-30 -7,-51 -2,-6 -1,-12 1,-18 -7,-2 -9,2 -10,6 -1,5 0,12 1,18 2,8 -1,15 -11,17 0,-3 0,-5 -1,-8 -8,-2 -15,-7 -19,-14 -7,-11 -8,-26 -4,-38 -3,0 -4,2 -5,4 -1,2 -5,9 -6,11zm-76 98c7,-2 15,-5 36,-6 -10,-3 -18,-6 -23,-13 -5,-9 -6,-20 -5,-24 1,-8 4,-15 8,-22 3,-9 6,-19 2,-28 -2,-4 -7,-4 -13,-3 -6,2 -18,10 -25,13 -5,1 -22,2 -28,-4 -4,-3 -6,-12 -4,-18 2,-7 6,-11 7,-21 -3,6 -10,14 -12,19 -5,5 -6,20 -3,26 1,4 5,9 9,11 8,5 14,5 22,5l1 4c-2,1 -10,0 -16,-2 -6,-2 -11,-6 -12,-7 0,7 4,15 11,19 6,4 13,5 18,5l2 3c-10,0 -23,-4 -28,-10 1,10 3,16 12,20 6,3 16,4 20,4l2 4c-5,0 -8,0 -12,-1 -4,-1 -11,-3 -14,-5 1,5 3,11 9,14 7,3 15,5 21,6l2 3c-7,1 -17,-3 -21,-5 2,6 8,15 15,16 4,0 12,-1 19,-3zm40 -63l1 -3 0 -1 1 -1 0 -1 1 -1 0 -1 0 -2 1 -1 0 -1 1 -1 1 -2 0 -1 1 -1 0 -1 1 -1 -24 -88 0 -1 0 -1 0 0 0 -1 -1 0 0 -1 0 0 0 0 0 -1 -1 0 0 0 0 0 0 0 0 -1 -1 0 0 0 0 0 0 0 -1 0 0 0 0 0 -1 0 0 -1 -1 0 0 0 0 0 -1 0 0 0 -1 0 -1 0 0 0 -5 -1 3 -3 1 -1 1 -1 0 0 1 0 0 -1 1 0 0 -1 1 0 0 -1 1 0 0 -1 1 0 0 0 1 -1 1 0 0 0 1 -1 0 0 1 0 0 0 1 -1 1 0 0 0 1 0 0 0 1 0 0 0 1 0 1 -1 0 0 1 1 0 0 1 0 0 0 1 0 0 0 1 0 0 0 1 0 0 1 1 0 0 0 0 0 1 1 0 0 1 0 0 0 0 1 1 0 0 0 0 1 0 0 1 1 0 0 0 0 0 1 1 0 0 1 0 0 0 0 1 1 0 0 0 1 1 5 0 0 0 -1 0 0 0 -1 0 0 0 -1 0 -1 0 0 1 -1 0 0 0 -1 0 0 0 -1 0 0 1 -1 0 0 0 -1 0 0 1 -1 0 0 0 -1 0 0 1 -1 0 0 1 0 0 -1 0 0 1 0 0 -1 0 0 0 0 0 0 1 -1 0 0 0 0 0 -1 1 0 0 -1 0 0 0 0 1 -1 0 0 0 -1 0 0 1 -1 0 0 0 0 0 -1 1 0 0 -1 0 0 0 -1 1 0 0 0 0 -1 0 0 0 0 1 -1 3 -5 2 14 0 0 0 0 0 -1 0 0 0 -1 0 0 1 -1 0 0 0 -1 0 0 1 -1 0 0 0 -1 0 0 1 0 0 -1 0 0 1 -1 0 0 1 0 0 -1 0 0 1 0 0 0 1 -1 0 0 1 0 0 -1 1 0 0 -1 1 0 0 0 1 -1 0 0 1 0 0 -1 0 0 1 0 0 0 0 0 2 -4 2 4 0 0 0 0 1 0 0 0 0 1 1 0 0 0 1 1 0 0 1 0 0 1 1 0 0 1 1 0 0 0 1 1 0 0 1 0 0 0 0 1 1 0 0 0 1 1 0 0 0 1 1 0 0 0 0 1 0 0 1 1 0 0 0 1 0 0 1 1 0 0 0 1 0 0 0 1 0 0 0 0 2 -14 3 5 1 1 0 0 0 0 0 1 0 0 1 0 0 1 0 0 0 1 1 0 0 1 0 0 0 0 1 1 0 0 0 1 0 0 1 1 0 0 0 0 0 1 1 0 0 1 0 0 0 0 1 1 0 0 0 0 0 0 0 1 1 0 0 0 0 1 1 0 0 0 1 1 0 0 0 1 0 0 1 1 0 0 0 1 0 0 1 1 0 0 0 1 0 0 0 1 0 0 1 1 0 0 0 1 0 1 0 0 0 1 0 0 0 1 0 0 1 -5 0 -1 0 0 1 -1 0 0 0 0 0 -1 1 0 0 -1 0 0 0 0 1 -1 0 0 0 -1 0 0 1 0 0 -1 0 0 1 0 0 0 1 -1 0 0 0 0 1 0 0 -1 1 0 0 0 1 0 0 0 1 0 0 0 1 0 0 0 1 -1 0 0 1 1 1 0 0 0 1 0 0 0 1 0 0 0 1 0 1 1 0 0 1 0 0 0 1 1 0 0 1 0 1 1 0 0 1 0 0 1 1 0 0 1 1 0 0 1 1 0 0 1 1 0 0 0 1 1 1 1 3 3 -5 1 0 0 -1 0 -1 0 0 0 -1 0 0 0 0 0 -1 0 0 1 -1 0 0 0 0 0 -1 0 0 0 0 0 0 0 -1 0 0 1 0 0 0 0 0 0 -1 0 0 1 0 0 0 0 0 1 -1 0 0 1 0 0 0 1 0 1 -24 88 1 1 0 1 1 1 0 1 1 2 1 1 0 1 1 1 0 2 0 1 1 1 0 1 1 1 0 1 1 3 0 0 0 2 1 0 0 1 0 1 0 0 0 1 0 0 0 1 0 0 0 1 0 0 0 0 1 0 0 0 1 -1 0 0 1 0 0 -1 1 0 0 0 1 -1 0 0 0 -1 1 0 0 0 0 -1 0 0 1 -1 0 0 0 -1 0 0 0 -1 0 -1 0 0 0 -1 0 0 0 -1 0 -1 0 0 0 -1 0 -1 0 0 0 -1 0 0 0 -1 -1 -2 0 0 0 -1 0 -1 0 0 0 -1 0 0 0 -1 0 -1 0 0 -1 -1 0 0 0 -1 0 -1 0 0 0 -1 0 0 0 -1 0 0 0 -1 0 -1 0 0 0 -1 1 0 0 -1 0 0 0 -1 0 0 0 -1 0 0 1 -1 0 0 0 0 0 -1 0 0 1 -1 0 0 0 0 0 -1 1 0 0 -1 1 0 0 0 0 -1 1 0 0 0 1 0 0 0 1 0 1 -1 0 0 1 0 0 0 1 0 1 0 0 1 1 0 2 0 1 0 0 -1 0 0 1 0 0 0 0 -1 1 0 0 0 1 0 0 0 1 0 0 -1 1 0 0 0 1 0 0 0 1 0 0 0 1 0 0 0 1 0 1 0 0 0 1 0 0 1 1 0 0 0 1 0 1 0 1 0 0 1 1 0 1 0 1 1 1 0 0 1 1 0 1 0 1 1 1 0 1 1 1 0 0 1 1 0 1 1 1 0 1 1 1 0 1 1 0 0 1 1 1 0 1 0 0 1 1 0 1 0 0 1 1 0 1 0 0 0 1 1 0 0 1 0 1 0 0 0 1 0 1 0 1 0 1 0 0 1 1 0 1 0 1 0 1 0 1 0 1 -1 1 0 1 0 1 0 1 0 1 0 1 0 1 -1 1 0 1 0 1 0 0 -1 1 0 1 0 0 -1 1 0 0 0 1 -1 0 0 0 0 0 -1 1 0 0 0 0 -1 1 0 0 -1 0 0 0 -1 0 0 1 -1 0 0 0 -1 0 0 0 -1 0 -1 0 0 1 -1 0 0 0 -1 0 -1 0 0 0 -1 0 0 0 -1 0 0 -1 -1 0 0 0 -1 0 0 0 -1 0 -1 -1 0 0 -1 0 0 0 -1 -1 0 0 -1 0 0 0 -1 -1 -1 0 0 0 -1 0 0 -1 -1 0 0 0 -1 -1 -1 0 0 0 -1 0 -1 -1 0 0 -1 0 -1 0 0 0 -1 -1 -1 0 -1 0 -1 0 -1 0 0 -1 -14 5 12 1 1 0 0 0 1 0 0 1 1 0 0 1 1 0 0 0 1 1 1 0 0 1 1 0 1 1 0 0 1 0 0 1 2 1 0 0 1 1 1 0 0 1 1 0 0 0 1 1 0 0 1 0 1 1 0 0 1 0 0 0 0 1 1 0 1 1 0 0 1 1 1 0 1 0 1 1 1 0 1 0 0 0 1 0 1 0 1 1 1 0 1 0 1 0 1 0 1 0 1 0 1 0 1 0 1 0 1 0 1 0 1 -1 1 0 1 0 1 0 1 0 0 -1 1 0 1 0 0 0 1 0 0 -1 0 0 1 0 0 0 1 -1 0 0 1 0 0 -1 0 0 1 0 0 -1 1 0 0 0 0 -1 1 0 0 2 1 0 2 0 1 -1 0 0 1 0 1 0 1 0 0 0 1 0 1 -1 1 0 0 0 1 -1 1 0 0 0 1 -1 1 0 0 0 1 -1 1 0 0 2 3 -1 1 0 1 0 1 0 1 0 1 0 1 -1 0 0 1 0 1 0 1 0 1 -1 0 0 1 0 1 -1 1 0 0 -1 1 0 1 0 0 -1 1 0 1 -1 0 -1 1 0 0 -1 1 -1 0 2 3 -1 1 0 1 0 0 0 1 0 0 -1 1 0 0 0 1 0 0 0 1 0 0 -1 1 0 0 0 1 0 0 -1 1 0 0 0 1 -1 0 0 1 0 0 -1 1 0 0 0 1 -1 0 0 1 -1 0 0 0 -1 1 0 0 -1 0 -1 1 0 0 -1 0 0 0 0 2 0 1 0 1 -1 1 0 0 0 1 -1 0 0 1 0 1 -1 0 0 1 0 1 -1 0 0 1 -1 1 0 0 -1 1 0 1 -1 0 0 1 -1 0 -1 1 0 0 -1 1 -1 0 0 1 -1 0 -1 1 0 0 -1 0 -1 0 -1 1 0 0 -1 0 0 0 -1 0 0 0 -1 0 0 0 -1 0 0 0 -1 0 -1 0 0 0 -1 0 0 0 -1 0 -1 0 0 0 -1 0 -1 -1 0 0 -1 0 -1 0 0 0 -1 0 -1 0 -1 0 0 -1 -1 0 -1 0 0 0 -1 0 -1 -1 0 0 -1 0 -1 0 0 -1 -1 0 -1 0 0 0 -1 0 -1 -1 -1 0 0 0 -1 0 -1 -1 -1 0 -1 0 -1 0 -1 0 -1 -1 -1 0 -1 0 -1 0 -2 0 -1 -1 -1 0 -2 0 -1 0 -2 0 -1 0 -2 0 -2 -1 -2 0 -1 0 -15 0 -2 0 0 0 -1 0 0 1 -1 0 -1 1 0 0 -1 0 0 1 -1 0 0 1 -1 0 0 1 0 0 -1 1 0 0 -1 1 0 0 0 1 -1 0 0 1 -1 0 0 0 0 1 -4 4 1 -1 1 0 2 0 1 -1 1 0 2 0 1 -1 1 0 2 0 1 0 1 0 2 0 1 0 1 0 1 0 2 0 1 0 1 0 1 0 1 0 2 1 1 0 1 0 1 1 1 0 2 0 1 1 1 0 1 1 1 0 1 1 1 0 1 1 2 1 1 0 1 1 1 0 1 1 1 1 1 0 1 1 1 0 1 1 1 0 1 1 1 1 1 0 1 1 1 0 1 1 1 0 1 0 1 1 1 0 1 0 1 1 1 0 2 0 2 1 2 15 2 10 -4 -1 -2 -1 -1 0 -1 -1 -1 0 -1 0 -2 -1 -1 0 -1 -1 -1 0 -1 -1 -1 0 -1 -1 -1 0 -1 -1 -1 0 -1 -1 -1 0 -1 -1 -1 0 -1 -1 -1 0 -1 -1 -1 0 -1 -1 -1 0 -1 -1 -1 0 -1 -1 -1 0 -1 0 -1 -1 -1 0 -1 -1 -1 0 -2 0 -1 -1 -1 0 -2 0 -1 0 -1 0 -2 -1 -1 0 -1 0 -2 0 -1 0 -2 0 -1 1 -1 0 -2 0 -1 0 -2 1 -1 0 -2 0 -1 1 -2 0 -2 1 -1 0 -2 1 -1 0 -2 1 -2 1 -1 0 -3 2 -3 -2 -1 0 -2 -1 -2 -1 -1 0 -2 -1 -1 0 -2 -1 -2 0 -1 -1 -2 0 -1 0 -2 -1 -1 0 -2 0 -1 0 -1 -1 -2 0 -1 0 -2 0 -1 0 -1 0 -2 1 -1 0 -1 0 -2 0 -1 0 -1 1 -2 0 -1 0 -1 1 -1 0 -1 1 -1 0 -1 0 -1 1 -1 0 -1 1 -1 0 -1 1 -1 0 -1 1 -1 0 -1 1 -1 0 -1 1 -1 0 -1 1 -1 0 -1 1 -1 0 -1 1 -1 0 -1 1 -1 0 -1 1 -1 0 -2 1 -1 0 -1 0 -1 1 -1 0 -2 1 -4 1 2 -10 2 -15 2 -1 2 0 1 0 1 -1 1 0 1 0 1 -1 1 0 1 0 1 -1 1 0 1 -1 1 0 1 -1 1 -1 1 0 1 -1 1 0 1 -1 1 0 1 -1 1 -1 1 0 1 -1 1 0 2 -1 1 -1 1 0 1 -1 1 0 1 -1 1 0 1 -1 2 0 1 0 1 -1 1 0 1 0 2 -1 1 0 1 0 1 0 1 0 2 0 1 0 1 0 1 0 2 0 1 0 1 0 2 0 1 0 1 1 2 0 1 0 1 1 2 0 1 0 1 1 -4 -4 0 -1 0 0 -1 0 0 -1 -1 0 0 -1 0 0 -1 -1 0 0 -1 -1 0 0 0 -1 -1 0 0 -1 -1 0 0 -1 -1 0 0 0 -1 -1 -1 0 0 -1 -1 0 0 0 -2 0 -15 0 -1 0 -2 0 -2 1 -2 0 -1 0 -2 0 -1 0 -2 0 -1 0 -1 1 -2 0 -1 0 -1 0 -1 0 -1 1 -1 0 -1 0 -1 0 -1 0 -1 1 -1 0 0 0 -1 0 -1 1 -1 0 0 0 -1 0 -1 0 0 1 -1 0 -1 0 0 0 -1 1 -1 0 0 0 -1 0 -1 0 0 1 -1 0 -1 0 -1 0 0 0 -1 0 -1 0 0 0 -1 1 -1 0 0 0 -1 0 -1 0 0 0 -1 0 0 0 -1 0 -1 0 0 0 -1 0 0 0 -1 0 0 0 -1 0 0 0 -1 0 0 0 -1 -1 -1 0 -1 0 0 0 -1 -1 -1 0 0 -1 -1 0 -1 -1 0 0 -1 -1 -1 0 0 -1 -1 0 0 -1 -1 -1 0 0 -1 -1 0 -1 -1 0 0 -1 0 -1 -1 0 0 -1 0 -1 -1 0 0 -1 0 0 -1 -1 0 -1 0 0 0 -3 -1 0 0 0 -1 -1 -1 0 0 0 -1 -1 0 0 -1 0 0 -1 -1 0 0 -1 0 0 -1 -1 0 0 0 -1 -1 0 0 -1 0 0 -1 -1 0 0 0 -1 0 0 -1 -1 0 0 0 -1 0 0 0 -1 0 0 -1 -1 0 0 0 -1 0 0 0 -1 -1 -1 2 -3 -1 0 -1 -1 0 0 -1 -1 -1 0 0 -1 -1 -1 0 0 0 -1 -1 -1 0 0 -1 -1 0 -1 0 -1 -1 0 0 -1 0 -1 0 -1 0 -1 -1 0 0 -1 0 -1 0 -1 0 -1 0 -1 -1 -1 2 -3 0 0 -1 -1 0 -1 0 0 -1 -1 0 -1 0 0 -1 -1 0 -1 0 0 -1 -1 0 -1 0 -1 0 0 0 -1 0 -1 0 -1 -1 0 0 -1 0 -2 2 -1 0 0 -1 -1 0 0 0 0 -1 -1 0 0 0 -1 -1 0 0 0 0 -1 -1 0 0 -1 0 0 0 -1 -1 0 0 0 0 -1 0 0 0 -1 -1 -1 0 0 0 -1 0 -1 0 -1 -1 -1 0 -1 0 -1 0 -1 0 -1 0 -1 0 -1 0 -1 0 -1 0 -1 0 -1 0 -1 1 -1 0 -1 0 -1 0 -1 0 0 0 -1 1 -1 0 -1 0 -1 1 -1 0 -1 1 0 0 -1 1 -1 0 0 0 0 0 -1 1 0 0 -1 0 -1 1 0 0 -1 0 0 1 -1 0 0 1 -1 0 -1 1 0 1 -2 0 0 0 -1 1 0 0 -1 1 -1 0 0 1 -1 0 -1 0 0 1 -1 0 0 1 -1 0 0 0 -1 0 0 1 -1 5 -12 -1 14 0 0 0 1 0 1 0 1 -1 1 0 1 0 0 0 1 0 1 -1 0 0 1 0 1 0 0 -1 1 0 1 0 0 -1 1 0 0 0 1 0 0 -1 1 0 1 0 0 0 1 -1 0 0 1 0 0 0 1 -1 0 0 1 0 1 0 0 0 1 0 0 -1 1 0 0 0 1 0 0 0 1 0 0 0 1 0 1 0 0 1 1 0 0 0 1 0 1 0 0 0 1 0 0 1 1 0 0 0 1 0 0 0 1 1 0 0 1 0 0 1 0 0 1 0 0 0 0 1 1 0 0 1 0 0 1 1 0 1 0 0 1 1 0 1 0 1 0 1 1 1 0 1 0 1 0 1 0 1 0 1 0 1 1 1 0 1 0 1 0 1 0 1 0 0 -1 1 0 1 0 1 0 1 0 0 0 1 0 1 0 0 0 1 -1 0 0 1 0 1 0 0 -1 1 0 1 0 0 -1 1 0 1 0 1 -1 0 0 1 -1 1 0 1 -1 1 0 1 -1 1 0 0 -1 1 0 1 -1 1 0 1 -1 1 0 1 0 0 -1 1 0 1 -1 1 0 1 0 0 -1 1 0 1 0 1 0 0 0 1 0 0 -1 1 0 0 0 1 0 1 0 0 0 1 0 0 0 1 0 0 0 1 0 0 0 1 0 0 1 1 0 0 0 1 0 0 0 1 0 0 1 0 0 1 0 0 0 0 1 1 0 2 0 1 0 0 -1 1 0 1 0 0 0 1 0 0 0 1 1 1 0 0 0 1 0 0 0 1 0 0 1 0 0 1 0 0 1 1 0 0 1 0 0 0 0 1 1 0 0 0 1 0 0 0 0 1 1 0 0 0 1 0 0 0 1 0 0 0 1 1 0 0 1 0 0 0 1 0 1 0 0 0 1 0 0 0 1 0 0 0 1 0 1 0 0 -1 1 0 0 0 1 0 1 0 0 0 1 0 0 0 1 0 1 0 0 -1 2 0 1 0 0 0 1 0 0 0 1 0 1 0 0 0 1 0 1 0 0 0 1 0 0 0 1 0 1 0 0 0 1 0 0 1 1 0 0 0 1 0 0 1 0 0 1 0 0 1 1 0 0 1 0 0 1 1 0 0 0 1 1 0 0 1 0 0 0 0 0 0 -1 0 0 0 -1 0 0 0 -1 0 0 0 -1 0 -1 1 0 0 -2 0 0z"/>
  <path class="fil4" d="M205 388l6 0 0 12 9 -12 8 0 -12 16 13 18 -7 0 -11 -15 0 15 -6 0 0 -34zm29 0l19 0 0 7 -13 0 0 6 13 0 0 6 -13 0 0 9 13 0 0 6 -19 0 0 -34zm28 0l6 0 8 24 8 -24 6 0 6 34 -6 0 -4 -21 -7 21 -6 0 -7 -21 -4 21 -6 0 6 -34zm39 0l18 0 0 7 -12 0 0 6 12 0 0 6 -12 0 0 9 12 0 0 6 -18 0 0 -34zm25 0l6 0 14 23 0 -23 7 0 0 34 -7 0 -14 -22 0 22 -6 0 0 -34zm31 0l19 0 0 7 -6 0 0 27 -7 0 0 -27 -6 0 0 -7zm23 0l19 0 0 7 -12 0 0 6 12 0 0 6 -12 0 0 9 12 0 0 6 -19 0 0 -34zm25 0l7 0c4,0 6,1 8,1 2,1 3,2 4,4 1,1 1,3 1,5 0,2 0,4 -1,6 -1,1 -3,2 -5,3l8 15 -7 0 -8 -14 0 0 0 14 -7 0 0 -34zm7 14l2 0c2,0 3,-1 4,-1 1,-1 1,-2 1,-3 0,-1 0,-1 -1,-2 0,0 0,-1 -1,-1 -1,0 -2,0 -4,0l-1 0 0 7zm20 -14l6 0 0 34 -6 0 0 -34zm24 0l6 0 13 34 -7 0 -2 -7 -14 0 -3 7 -6 0 13 -34zm3 9l-5 12 9 0 -4 -12zm21 -9l6 0 15 23 0 -23 6 0 0 34 -6 0 -14 -22 0 22 -7 0 0 -34zm-480 58l7 0c4,0 6,0 8,1 1,0 3,1 4,3 1,1 1,3 1,5 0,3 0,5 -2,6 -1,2 -3,3 -5,4 -1,0 -3,0 -7,0l0 14 -6 0 0 -33zm6 13l2 0c2,0 3,0 4,-1 1,0 1,0 1,-1 1,0 1,-1 1,-2 0,-1 -1,-2 -2,-2 0,-1 -2,-1 -4,-1l-2 0 0 7zm21 -13l18 0 0 6 -12 0 0 6 12 0 0 6 -12 0 0 9 12 0 0 6 -18 0 0 -33zm24 0l6 0 15 22 0 -22 6 0 0 33 -6 0 -15 -22 0 22 -6 0 0 -33zm35 0l8 0c4,0 8,0 11,1 2,2 4,4 5,6 2,3 3,6 3,10 0,3 -1,5 -2,7 0,2 -2,4 -3,6 -2,1 -3,2 -5,3 -2,0 -5,0 -9,0l-8 0 0 -33zm6 6l0 21 3 0c3,0 5,0 7,-1 1,-1 2,-2 3,-3 1,-2 1,-4 1,-6 0,-4 -1,-7 -3,-9 -2,-1 -4,-2 -8,-2l-3 0zm26 -6l7 0 0 33 -7 0 0 -33zm14 0l8 0c5,0 8,0 11,1 2,2 4,4 6,6 1,3 2,6 2,10 0,3 0,5 -1,7 -1,2 -2,4 -4,6 -1,1 -3,2 -5,3 -2,0 -5,0 -9,0l-8 0 0 -33zm7 6l0 21 3 0c2,0 5,0 6,-1 1,-1 2,-2 3,-3 1,-2 1,-4 1,-6 0,-4 -1,-7 -3,-9 -1,-1 -4,-2 -8,-2l-2 0zm26 -6l6 0 0 33 -6 0 0 -33zm13 0l7 0 0 11 9 -11 8 0 -12 15 13 18 -8 0 -10 -15 0 15 -7 0 0 -33zm40 0l6 0 13 33 -6 0 -3 -7 -14 0 -2 7 -7 0 13 -33zm3 9l-4 11 9 0 -5 -11zm22 -9l6 0 14 22 0 -22 7 0 0 33 -7 0 -14 -22 0 22 -6 0 0 -33zm48 0l7 0c5,0 9,0 11,1 3,2 5,4 6,6 2,3 2,6 2,10 0,3 0,5 -1,7 -1,2 -2,4 -3,6 -2,1 -4,2 -5,3 -2,0 -5,0 -10,0l-7 0 0 -33zm6 6l0 21 3 0c3,0 5,0 6,-1 2,-1 3,-2 4,-3 1,-2 1,-4 1,-6 0,-4 -1,-7 -3,-9 -2,-1 -5,-2 -9,-2l-2 0zm37 -6l6 0 13 33 -6 0 -3 -7 -14 0 -2 7 -7 0 13 -33zm3 9l-4 11 9 0 -5 -11zm22 -9l6 0 14 22 0 -22 7 0 0 33 -7 0 -14 -22 0 22 -6 0 0 -33zm48 0l6 0 0 11 9 -11 8 0 -12 15 13 18 -7 0 -11 -15 0 15 -6 0 0 -33zm29 0l18 0 0 6 -12 0 0 6 12 0 0 6 -12 0 0 9 12 0 0 6 -18 0 0 -33zm24 33l0 -33 6 0c3,0 5,0 6,0 2,1 4,2 5,3 2,2 2,3 2,5 0,2 0,3 -1,4 0,1 -1,2 -2,3 2,1 3,2 4,3 1,2 2,4 2,6 0,1 -1,3 -2,5 -1,1 -2,3 -4,3 -1,1 -3,1 -6,1l-10 0zm7 -27l0 7 1 0c2,0 3,0 4,-1 0,-1 1,-2 1,-3 0,-1 0,-2 -1,-2 -1,-1 -2,-1 -4,-1l-1 0zm0 13l0 8 1 0c3,0 5,0 6,-1 1,0 1,-1 1,-3 0,-1 0,-2 -1,-3 -2,-1 -3,-1 -6,-1l-1 0zm20 -19l7 0 0 21c0,2 0,4 0,5 1,0 1,1 2,1 1,1 2,1 3,1 1,0 2,0 3,-1 1,0 1,-1 1,-2 1,0 1,-2 1,-4l0 -21 6 0 0 20c0,3 0,6 0,7 -1,1 -1,2 -2,4 -1,1 -3,2 -4,2 -2,1 -3,1 -5,1 -3,0 -5,0 -6,-1 -2,-2 -4,-3 -4,-5 -1,-1 -2,-4 -2,-8l0 -20zm31 0l8 0c4,0 8,0 11,1 2,2 4,4 5,6 2,3 3,6 3,10 0,3 -1,5 -2,7 0,2 -2,4 -3,6 -2,1 -3,2 -5,3 -2,0 -5,0 -9,0l-8 0 0 -33zm6 6l0 21 3 0c3,0 5,0 7,-1 1,-1 2,-2 3,-3 1,-2 1,-4 1,-6 0,-4 -1,-7 -3,-9 -2,-1 -4,-2 -8,-2l-3 0zm37 -6l7 0 13 33 -7 0 -3 -7 -13 0 -3 7 -7 0 13 -33zm4 9l-5 11 9 0 -4 -11zm18 -9l7 0 7 12 6 -12 7 0 -10 19 0 14 -7 0 0 -14 -10 -19zm42 0l7 0 13 33 -7 0 -2 -7 -14 0 -3 7 -7 0 13 -33zm4 9l-5 11 9 0 -4 -11zm31 -9l7 0 13 33 -7 0 -3 -7 -13 0 -3 7 -7 0 13 -33zm4 9l-5 11 9 0 -4 -11zm21 -9l6 0 15 22 0 -22 6 0 0 33 -6 0 -15 -22 0 22 -6 0 0 -33z"/>
 </g>
</svg>
